<?xml version="1.0" encoding="UTF-8" standalone="no"?>
<svg
   xmlns:dc="http://purl.org/dc/elements/1.1/"
   xmlns:cc="http://creativecommons.org/ns#"
   xmlns:rdf="http://www.w3.org/1999/02/22-rdf-syntax-ns#"
   xmlns:svg="http://www.w3.org/2000/svg"
   xmlns="http://www.w3.org/2000/svg"
   xmlns:sodipodi="http://sodipodi.sourceforge.net/DTD/sodipodi-0.dtd"
   xmlns:inkscape="http://www.inkscape.org/namespaces/inkscape"
   version="1.1"
   id="Слой_1"
   x="0px"
   y="0px"
   viewBox="0 0 1500 315.82361"
   xml:space="preserve"
   sodipodi:docname="logo-v2.1.svg"
   inkscape:version="1.0.1 (3bc2e813f5, 2020-09-07)"
   width="1500"
   height="315.82361"><metadata
   id="metadata98"><rdf:RDF><cc:Work
       rdf:about=""><dc:format>image/svg+xml</dc:format><dc:type
         rdf:resource="http://purl.org/dc/dcmitype/StillImage" /><dc:title></dc:title></cc:Work></rdf:RDF></metadata><defs
   id="defs96"><inkscape:path-effect
   effect="spiro"
   id="path-effect1424"
   is_visible="true"
   lpeversion="1" /><inkscape:path-effect
   effect="spiro"
   id="path-effect1411"
   is_visible="true"
   lpeversion="1" /><inkscape:path-effect
   effect="spiro"
   id="path-effect1395"
   is_visible="true"
   lpeversion="1" /><inkscape:path-effect
   effect="spiro"
   id="path-effect1387"
   is_visible="true"
   lpeversion="1" /><inkscape:path-effect
   effect="spiro"
   id="path-effect1383"
   is_visible="true"
   lpeversion="1" /><inkscape:path-effect
   effect="spiro"
   id="path-effect1348"
   is_visible="true"
   lpeversion="1" /><inkscape:path-effect
   effect="spiro"
   id="path-effect1344"
   is_visible="true"
   lpeversion="1" />
	
	
	
	
	
	
	
	
	

		
		
		
		
		
		
		
	</defs><sodipodi:namedview
   pagecolor="#ffffff"
   bordercolor="#666666"
   borderopacity="1"
   objecttolerance="10"
   gridtolerance="10"
   guidetolerance="10"
   inkscape:pageopacity="0"
   inkscape:pageshadow="2"
   inkscape:window-width="1920"
   inkscape:window-height="1001"
   id="namedview94"
   showgrid="false"
   inkscape:snap-grids="true"
   inkscape:snap-to-guides="true"
   inkscape:snap-page="false"
   inkscape:zoom="0.5"
   inkscape:cx="857.98929"
   inkscape:cy="286.77518"
   inkscape:window-x="-9"
   inkscape:window-y="-9"
   inkscape:window-maximized="1"
   inkscape:current-layer="Слой_1"
   inkscape:document-rotation="0"
   fit-margin-top="0"
   fit-margin-left="0"
   fit-margin-right="0"
   fit-margin-bottom="0" />
<style
   type="text/css"
   id="style55">
	.st0{fill:#FFAA5F;}
	.st1{fill:#96D7A5;}
	.st2{fill:#78C3A5;}
	.st3{fill:#B67F5F;}
	.st4{fill:#A06E50;}
	.st5{fill:#FF8C5A;}
</style>
<path
   class="st0"
   d="m 37.215104,233.95769 c -3.720899,7.90691 -13.488262,12.55804 -19.534724,12.55804 -9.3022501,0 -16.74404998,-6.04646 -16.74404998,-14.8836 0,-2.79068 0.93022498,-6.51158 1.86044988,-8.37203 L 95.819281,24.657067 C 101.40063,13.494367 108.37732,4.65723 121.40046,4.65723 c 13.02316,0 16.74406,7.906912 19.53473,19.999837 l 37.209,198.603033 c 0.46511,0.46511 0.46511,2.32556 0.46511,3.7209 0,12.09292 -10.23247,19.53473 -21.86028,19.53473 -12.09293,0 -14.8836,-8.37203 -17.20917,-20.46495 L 133.49339,193.4929 H 55.354491 Z M 70.238091,161.40014 H 128.37715 C 122.33069,127.44693 115.81912,94.42394 113.49355,59.540504 100.00529,95.354165 84.656577,127.44693 70.238091,161.40014 Z"
   id="path57"
   style="stroke:#000000;stroke-width:1.87266;stroke-linecap:round;stroke-linejoin:round;stroke-miterlimit:4;stroke-dasharray:none;stroke-opacity:1" /><path
   class="st0"
   d="m 300.00366,10.703693 c 6.97669,-0.465113 14.88361,0 33.95322,-8.3720255 0.93022,-0.4651125 4.18601,-1.39533748 7.44179,-1.39533748 8.37203,0 14.41849,6.04646238 14.41849,13.95337398 0,23.255625 -43.72057,25.116075 -59.06929,26.511413 -19.53472,1.860449 -36.74388,7.906912 -43.25546,53.022823 9.76736,-8.837139 22.79052,-13.953371 37.67411,-13.953371 39.99968,0 59.53441,26.976521 54.41817,60.929731 l -6.51157,43.72058 c -5.11624,33.95321 -31.62766,60.46462 -75.81335,60.46462 -44.18568,0 -64.18552,-26.51141 -59.06928,-60.46462 l 13.95337,-97.673629 c 6.04647,-42.325235 31.62765,-71.627321 81.8598,-76.743558 z m 3.7209,174.417187 6.51158,-44.18569 c 2.32556,-17.67428 -5.58135,-28.83697 -26.0463,-28.83697 -19.53472,0 -33.4881,10.23247 -36.27878,26.97652 l -6.51157,46.04614 c -2.79067,18.13938 6.51157,29.30209 27.44163,29.30209 20.93007,0 32.09277,-11.16271 34.88344,-29.30209 z"
   id="path59"
   style="stroke:#000000;stroke-width:1.87266;stroke-linecap:round;stroke-linejoin:round;stroke-miterlimit:4;stroke-dasharray:none;stroke-opacity:1" /><path
   class="st0"
   d="m 406.51443,239.07392 -8.37203,59.06929 c -1.39534,9.30225 -8.83713,16.74406 -20.46495,16.74406 -11.62781,0 -17.20917,-7.90692 -15.81383,-16.74406 l 24.65096,-176.27763 c 1.39534,-9.30225 0.46512,-14.41849 -1.86045,-19.53473 -1.86045,-2.79067 -2.79067,-5.116236 -1.86045,-8.837135 1.39535,-9.767363 10.69759,-16.278936 18.60451,-16.278936 6.51157,0 11.16269,3.25579 14.41848,8.837138 16.27894,-8.837138 32.55788,-14.883601 49.76704,-14.883601 36.74388,0 53.48794,26.046298 48.3717,64.185524 l -5.58135,41.39501 c -5.58135,39.99967 -24.65096,68.83665 -69.76688,68.83665 -10.23247,0.46511 -20.46494,-1.39534 -32.09275,-6.51158 z m 4.186,-29.30208 c 9.76737,4.18601 20.93007,5.58135 28.37187,5.58135 20.46495,0 29.30209,-12.09293 33.02299,-38.13923 l 5.58135,-41.39501 c 2.79067,-21.86028 -4.18602,-33.02299 -22.32541,-33.02299 -9.30224,0 -20.93005,3.25579 -32.55787,8.83714 0.46511,3.7209 0.46511,6.97669 0,10.23248 z"
   id="path61"
   style="stroke:#000000;stroke-width:1.87266;stroke-linecap:round;stroke-linejoin:round;stroke-miterlimit:4;stroke-dasharray:none;stroke-opacity:1" /><path
   class="st0"
   d="m 594.41987,246.05061 c -37.67411,0 -53.95305,-26.0463 -48.3717,-64.65063 l 13.02315,-92.557388 c 1.39534,-9.302248 8.83714,-16.278938 20.46495,-16.278938 11.1627,0 17.20917,6.97669 15.81383,16.278938 l -13.02315,92.557388 c -2.79068,21.39517 4.18601,33.48809 21.39517,33.48809 10.23248,0 21.39517,-3.25578 33.02299,-8.83713 0,-2.79068 0,-5.58135 0.46511,-7.90691 L 652.55893,89.3077 c 1.39534,-9.302247 8.37203,-16.278934 20.46496,-16.278934 12.09292,0 17.20916,6.976687 15.81382,16.278934 l -16.27894,112.09211 c -1.86045,11.62781 0.46512,13.02316 3.25579,17.67428 1.86045,2.32556 2.79067,5.11624 2.79067,8.83714 -1.39534,9.76736 -10.69758,16.27893 -19.53472,16.27893 -7.4418,0 -12.55804,-4.65112 -15.81383,-11.1627 -16.27894,9.30225 -33.4881,13.02315 -48.83681,13.02315 z"
   id="path63"
   style="stroke:#000000;stroke-width:1.87266;stroke-linecap:round;stroke-linejoin:round;stroke-miterlimit:4;stroke-dasharray:none;stroke-opacity:1" /><path
   class="st0"
   d="m 752.55813,227.91123 c -1.39536,9.30225 -10.6976,17.20916 -20.93007,17.20916 -10.23248,0 -16.74405,-7.90691 -15.34871,-17.20916 L 735.81407,89.3077 c 1.39534,-8.837131 9.76736,-17.209159 19.99986,-17.209159 10.23244,0 17.20914,7.906912 16.27888,17.209159 l -7.4418,51.62749 h 12.55805 L 823.2552,86.051917 c 6.04645,-6.976689 12.55806,-13.023151 20.93012,-13.023151 8.37198,0 14.88359,5.581354 14.88359,13.023151 0,2.790675 -1.86045,7.906914 -4.18607,11.162697 l -52.55767,62.325076 35.34854,61.85996 c 1.86045,2.79068 2.32554,6.51158 1.86045,9.76736 -1.86045,9.30226 -10.23251,14.41849 -19.06959,14.41849 -9.76742,0 -13.95341,-6.04646 -17.20922,-12.55804 l -32.55782,-59.06928 h -10.23251 z"
   id="path65"
   style="stroke:#000000;stroke-width:1.87266;stroke-linecap:round;stroke-linejoin:round;stroke-miterlimit:4;stroke-dasharray:none;stroke-opacity:1" /><path
   class="st0"
   d="m 1075.3462,135.35384 c 5.1162,-35.34855 28.3718,-62.790186 73.4877,-62.790186 17.6743,0 51.1624,4.651125 48.3718,24.65096 -0.9303,6.976686 -6.5116,13.953376 -18.1394,13.953376 -2.7907,0 -5.1163,-0.46511 -8.3721,-1.39534 -6.5115,-3.25578 -12.558,-6.51157 -23.7207,-6.51157 -22.3254,0 -33.0229,11.62781 -35.3486,31.62765 l -6.5115,47.90659 c -2.7907,19.99983 4.186,32.09275 26.5114,32.09275 11.1627,0 18.1394,-3.25578 25.5812,-6.51157 2.7906,-0.93022 5.1162,-1.86045 8.372,-1.86045 11.6278,0 15.3487,7.4418 14.4185,14.41849 -2.7907,19.53473 -37.6741,24.65096 -55.8135,24.65096 -44.6508,0 -60.4647,-27.90675 -55.3484,-62.79018 z"
   id="path67"
   style="stroke:#000000;stroke-width:1.87266;stroke-linecap:round;stroke-linejoin:round;stroke-miterlimit:4;stroke-dasharray:none;stroke-opacity:1" /><path
   class="st0"
   d="m 1245.5774,227.91123 c -1.3954,9.30225 -10.6976,17.20916 -20.9301,17.20916 -10.2325,0 -16.7441,-7.90691 -15.3487,-17.20916 L 1228.8333,89.3077 c 1.3954,-8.837131 9.7674,-17.209159 19.9999,-17.209159 10.2324,0 17.2091,7.906912 16.2789,17.209159 l -7.4418,51.62749 h 12.558 l 46.0462,-54.883273 c 6.0464,-6.976689 12.558,-13.023151 20.93,-13.023151 8.3721,0 14.8836,5.581354 14.8836,13.023151 0,2.790675 -1.8605,7.906914 -4.186,11.162697 l -52.5577,62.325076 35.3486,61.85996 c 1.8604,2.79068 2.3255,6.51158 1.8604,9.76736 -1.8604,9.30226 -10.2325,14.41849 -19.0696,14.41849 -9.7674,0 -13.9534,-6.04646 -17.2092,-12.55804 l -32.5578,-59.06928 h -10.2325 z"
   id="path69"
   style="stroke:#000000;stroke-width:1.87266;stroke-linecap:round;stroke-linejoin:round;stroke-miterlimit:4;stroke-dasharray:none;stroke-opacity:1" /><g
   id="g73"
   transform="matrix(4.6511249,0,0,4.6511249,-7.9008074,-3.2496824)"
   style="stroke:#000000;stroke-width:0.402625;stroke-linecap:round;stroke-linejoin:round;stroke-miterlimit:4;stroke-dasharray:none;stroke-opacity:1">
		<path
   class="st0"
   d="m 294.2,39.7 1.2,-8.6 c 1.2,-8.6 5.8,-15 16.1,-15 9.4,0 12.6,5.3 11.3,14.7 l -2.1,14.6 c -0.3,2.1 0.6,2.2 1.5,2.3 1.4,0.1 1.8,0.9 1.8,2 0,2.4 -1.7,3.6 -4.6,3.6 -2.4,0 -4.2,-0.8 -5.4,-3.2 -3,2.3 -5.6,3.5 -9.4,3.5 -8.1,0 -11.5,-5.6 -10.4,-13.9 z m 19,4.9 2.2,-15.5 C 316,25 314.9,23 310.6,23 c -4.6,0 -6.6,2.4 -7.3,8.1 l -1.2,8.6 c -0.6,4.8 0.9,7.2 5.1,7.2 2,0 3.5,-0.5 6,-2.3 z"
   id="path71"
   style="stroke:#000000;stroke-width:0.402625;stroke-linecap:round;stroke-linejoin:round;stroke-miterlimit:4;stroke-dasharray:none;stroke-opacity:1" />
	</g>
<g
   id="g1634"
   transform="matrix(0.74906367,0,0,0.74906367,0.9363297,0.93633)"><path
     style="fill:none;fill-opacity:1;stroke:#ffaa5f;stroke-width:24;stroke-linecap:round;stroke-linejoin:round;stroke-miterlimit:4;stroke-dasharray:none;stroke-opacity:1;paint-order:stroke markers fill"
     d="m 1363.6554,308.29856 -85.9135,10.96015 107.1267,-46.66905 -149.1995,41.7193 172.534,-82.02438 -200.4647,61.51829 199.7576,-102.88404 -220.2637,75.66043 208.95,-107.83379 -210.0107,67.5287 193.3937,-100.76272 -214.9604,80.96373 191.6259,-101.46982 -183.4942,73.5391 108.8944,-71.06423 -95.1058,37.83021 56.9221,-41.7193"
     id="path1346"
     inkscape:path-effect="#path-effect1348"
     inkscape:original-d="m 1363.6554,308.29856 -85.9135,10.96015 107.1267,-46.66905 -149.1995,41.7193 172.534,-82.02438 -200.4647,61.51829 199.7576,-102.88404 -220.2637,75.66043 208.95,-107.83379 -210.0107,67.5287 193.3937,-100.76272 -214.9604,80.96373 191.6259,-101.46982 -183.4942,73.5391 108.8944,-71.06423 -95.1058,37.83021 56.9221,-41.7193" /><g
     id="g1620"><g
       id="g1608"><path
         id="path1420"
         style="fill:none;stroke:#b67f5f;stroke-width:11.1;stroke-linecap:round;stroke-linejoin:round;stroke-miterlimit:4;stroke-dasharray:none;stroke-opacity:1;paint-order:stroke fill markers"
         d="m 1271.2661,43.343838 c 8.674,14.176466 20.5992,36.010174 20.7072,49.053517 l 0.1699,20.517585" /><path
         style="fill:none;stroke:#78c3a5;stroke-width:12;stroke-linecap:round;stroke-linejoin:round;stroke-miterlimit:4;stroke-dasharray:none;stroke-opacity:1"
         d="M 1334.75,75.75 1352,60.5 l -37,25.25 39.5,-40.5 -55.75,35.75 34,-35.75 -39.8543,30.510401 L 1318,46.25 l -16,13"
         id="path1429" /><path
         style="fill:none;stroke:#ffaa5f;stroke-width:24;stroke-linecap:round;stroke-linejoin:round;stroke-miterlimit:4;stroke-dasharray:none;stroke-opacity:1;paint-order:stroke markers fill"
         d="m 1384.2008,138.08534 -204.7074,106.77313 217.7889,-68.94292 -203.2932,108.18734 203.6467,-69.65002 -192.6866,100.40917 193.3937,-58.68987"
         id="path1431" /><g
         id="g1320"><path
           id="path75"
           style="fill:none;stroke:#000000;stroke-width:2.5;stroke-miterlimit:4;stroke-dasharray:none;stroke-opacity:1"
           d="m 1294.2894,80.022913 c 11.0498,2.152824 23.0332,0.07909 34.4883,-6.221205 10.5557,-5.588326 18.0068,-14.281279 21.7323,-23.595156 1.2419,-2.483701 -0.6209,-5.588327 -3.1046,-6.209252 -9.9348,-1.241851 -21.1114,0.620925 -31.6672,6.830177 v 0 c -11.0645,6.085477 -18.6786,15.128392 -22.8425,24.932924" /><path
           id="path79"
           style="fill:none;stroke:#000000;stroke-width:2.5;stroke-miterlimit:4;stroke-dasharray:none;stroke-opacity:1"
           d="m 1297.2336,108.98502 v -3.80274 c 0,-35.392735 -18.0068,-58.987891 -18.6277,-60.229742 v 0 c -1.8628,-2.483701 -5.5884,-3.104626 -8.0721,-1.24185 -2.4837,1.862775 -3.1046,5.588326 -1.2418,8.072027 0,0 16.144,21.732381 16.144,53.399565 v 0.006" /><g
           id="g1236"><path
             id="path83"
             style="fill:none;stroke:#000000;stroke-width:2.5;stroke-miterlimit:4;stroke-dasharray:none;stroke-opacity:1"
             d="m 1265.4453,102.45312 c -50.2949,0 -91.2754,50.29403 -91.2754,111.76563 0,61.47159 40.9805,111.76758 91.2754,111.76758 10.6764,0 20.9307,-2.24682 30.4649,-6.36719 -29.7011,-15.37921 -50.9551,-56.90877 -50.9551,-105.40039 0,-48.45424 21.2216,-89.95564 50.8867,-105.36328 -9.5148,-4.13961 -19.7455,-6.40235 -30.3965,-6.40235 z" /><path
             class="st0"
             d="m 1397.6358,214.45287 c 0,-61.4716 -34.1509,-111.76654 -76.3738,-111.76654 -42.2229,0 -76.3738,50.29494 -76.3738,111.76654 0,61.47159 34.1509,111.76653 76.3738,111.76653 42.2229,0 76.3738,-49.67401 76.3738,-111.76653 z"
             id="path85-5"
             style="fill:none;fill-opacity:1;stroke:#000000;stroke-width:2.5;stroke-miterlimit:4;stroke-dasharray:none;stroke-opacity:1" /></g></g></g></g></g></svg>
