<?xml version="1.0" encoding="UTF-8" standalone="no"?>
<svg
   xmlns:dc="http://purl.org/dc/elements/1.1/"
   xmlns:cc="http://creativecommons.org/ns#"
   xmlns:rdf="http://www.w3.org/1999/02/22-rdf-syntax-ns#"
   xmlns:svg="http://www.w3.org/2000/svg"
   xmlns="http://www.w3.org/2000/svg"
   xmlns:sodipodi="http://sodipodi.sourceforge.net/DTD/sodipodi-0.dtd"
   xmlns:inkscape="http://www.inkscape.org/namespaces/inkscape"
   version="1.1"
   id="Слой_1"
   x="0px"
   y="0px"
   viewBox="0 0 320 320"
   xml:space="preserve"
   sodipodi:docname="logo-icon-v2.svg"
   inkscape:version="1.0.1 (3bc2e813f5, 2020-09-07)"
   width="320"
   height="320"><g
   id="g866"
   transform="matrix(1.1959615,0,0,1.090422,-1378.4908,-41.210938)"><path
     style="fill:none;fill-opacity:1;stroke:#ffaa5f;stroke-width:24;stroke-linecap:round;stroke-linejoin:round;stroke-miterlimit:4;stroke-dasharray:none;stroke-opacity:1;paint-order:stroke markers fill"
     d="m 1363.6554,308.29856 -85.9135,10.96015 107.1267,-46.66905 -149.1995,41.7193 172.534,-82.02438 -200.4647,61.51829 199.7576,-102.88404 -220.2637,75.66043 208.95,-107.83379 -210.0107,67.5287 193.3937,-100.76272 -214.9604,80.96373 191.6259,-101.46982 -183.4942,73.5391 108.8944,-71.06423 -95.1058,37.83021 56.9221,-41.7193"
     id="path1346"
     inkscape:path-effect="#path-effect1348"
     inkscape:original-d="m 1363.6554,308.29856 -85.9135,10.96015 107.1267,-46.66905 -149.1995,41.7193 172.534,-82.02438 -200.4647,61.51829 199.7576,-102.88404 -220.2637,75.66043 208.95,-107.83379 -210.0107,67.5287 193.3937,-100.76272 -214.9604,80.96373 191.6259,-101.46982 -183.4942,73.5391 108.8944,-71.06423 -95.1058,37.83021 56.9221,-41.7193" /><path
     id="path1420"
     style="fill:none;stroke:#b67f5f;stroke-width:11.1;stroke-linecap:round;stroke-linejoin:round;stroke-miterlimit:4;stroke-dasharray:none;stroke-opacity:1;paint-order:stroke fill markers"
     d="m 1271.2661,43.343838 c 8.674,14.176466 20.5992,36.010174 20.7072,49.053517 l 0.1699,20.517585" /><path
     style="fill:none;stroke:#78c3a5;stroke-width:12;stroke-linecap:round;stroke-linejoin:round;stroke-miterlimit:4;stroke-dasharray:none;stroke-opacity:1"
     d="M 1334.75,75.75 1352,60.5 l -37,25.25 39.5,-40.5 -55.75,35.75 34,-35.75 -39.8543,30.510401 L 1318,46.25 l -16,13"
     id="path1429" /><path
     style="fill:none;stroke:#ffaa5f;stroke-width:24;stroke-linecap:round;stroke-linejoin:round;stroke-miterlimit:4;stroke-dasharray:none;stroke-opacity:1;paint-order:stroke markers fill"
     d="m 1384.2008,138.08534 -204.7074,106.77313 217.7889,-68.94292 -203.2932,108.18734 203.6467,-69.65002 -192.6866,100.40917 193.3937,-58.68987"
     id="path1431" /><g
     id="g1320"><path
       id="path75"
       style="fill:none;stroke:#000000;stroke-width:2.5;stroke-miterlimit:4;stroke-dasharray:none;stroke-opacity:1"
       d="m 1294.2894,80.022913 c 11.0498,2.152824 23.0332,0.07909 34.4883,-6.221205 10.5557,-5.588326 18.0068,-14.281279 21.7323,-23.595156 1.2419,-2.483701 -0.6209,-5.588327 -3.1046,-6.209252 -9.9348,-1.241851 -21.1114,0.620925 -31.6672,6.830177 v 0 c -11.0645,6.085477 -18.6786,15.128392 -22.8425,24.932924" /><path
       id="path79"
       style="fill:none;stroke:#000000;stroke-width:2.5;stroke-miterlimit:4;stroke-dasharray:none;stroke-opacity:1"
       d="m 1297.2336,108.98502 v -3.80274 c 0,-35.392735 -18.0068,-58.987891 -18.6277,-60.229742 v 0 c -1.8628,-2.483701 -5.5884,-3.104626 -8.0721,-1.24185 -2.4837,1.862775 -3.1046,5.588326 -1.2418,8.072027 0,0 16.144,21.732381 16.144,53.399565 v 0.006" /><g
       id="g1236"><path
         id="path83"
         style="fill:none;stroke:#000000;stroke-width:2.5;stroke-miterlimit:4;stroke-dasharray:none;stroke-opacity:1"
         d="m 1265.4453,102.45312 c -50.2949,0 -91.2754,50.29403 -91.2754,111.76563 0,61.47159 40.9805,111.76758 91.2754,111.76758 10.6764,0 20.9307,-2.24682 30.4649,-6.36719 -29.7011,-15.37921 -50.9551,-56.90877 -50.9551,-105.40039 0,-48.45424 21.2216,-89.95564 50.8867,-105.36328 -9.5148,-4.13961 -19.7455,-6.40235 -30.3965,-6.40235 z" /><path
         class="st0"
         d="m 1397.6358,214.45287 c 0,-61.4716 -34.1509,-111.76654 -76.3738,-111.76654 -42.2229,0 -76.3738,50.29494 -76.3738,111.76654 0,61.47159 34.1509,111.76653 76.3738,111.76653 42.2229,0 76.3738,-49.67401 76.3738,-111.76653 z"
         id="path85-5"
         style="fill:none;fill-opacity:1;stroke:#000000;stroke-width:2.5;stroke-miterlimit:4;stroke-dasharray:none;stroke-opacity:1" /></g></g></g><metadata
   id="metadata98"><rdf:RDF><cc:Work
       rdf:about=""><dc:format>image/svg+xml</dc:format><dc:type
         rdf:resource="http://purl.org/dc/dcmitype/StillImage" /><dc:title></dc:title></cc:Work></rdf:RDF></metadata><defs
   id="defs96"><inkscape:path-effect
   effect="spiro"
   id="path-effect1424"
   is_visible="true"
   lpeversion="1" /><inkscape:path-effect
   effect="spiro"
   id="path-effect1411"
   is_visible="true"
   lpeversion="1" /><inkscape:path-effect
   effect="spiro"
   id="path-effect1395"
   is_visible="true"
   lpeversion="1" /><inkscape:path-effect
   effect="spiro"
   id="path-effect1387"
   is_visible="true"
   lpeversion="1" /><inkscape:path-effect
   effect="spiro"
   id="path-effect1383"
   is_visible="true"
   lpeversion="1" /><inkscape:path-effect
   effect="spiro"
   id="path-effect1348"
   is_visible="true"
   lpeversion="1" /><inkscape:path-effect
   effect="spiro"
   id="path-effect1344"
   is_visible="true"
   lpeversion="1" />
	
	
	
	
	
	
	
	
	

		
		
		
		
		
		
		
	</defs><sodipodi:namedview
   pagecolor="#ffffff"
   bordercolor="#666666"
   borderopacity="1"
   objecttolerance="10"
   gridtolerance="10"
   guidetolerance="10"
   inkscape:pageopacity="0"
   inkscape:pageshadow="2"
   inkscape:window-width="1920"
   inkscape:window-height="1001"
   id="namedview94"
   showgrid="false"
   inkscape:snap-grids="true"
   inkscape:snap-to-guides="true"
   inkscape:snap-page="false"
   inkscape:zoom="0.70710678"
   inkscape:cx="-150.49139"
   inkscape:cy="163.4703"
   inkscape:window-x="-9"
   inkscape:window-y="-9"
   inkscape:window-maximized="1"
   inkscape:current-layer="Слой_1"
   inkscape:document-rotation="0"
   fit-margin-top="0"
   fit-margin-left="0"
   fit-margin-right="0"
   fit-margin-bottom="0" />
<style
   type="text/css"
   id="style55">
	.st0{fill:#FFAA5F;}
	.st1{fill:#96D7A5;}
	.st2{fill:#78C3A5;}
	.st3{fill:#B67F5F;}
	.st4{fill:#A06E50;}
	.st5{fill:#FF8C5A;}
</style>

</svg>
