<?xml version="1.0" encoding="UTF-8" standalone="no"?>
<svg
   xmlns:dc="http://purl.org/dc/elements/1.1/"
   xmlns:cc="http://creativecommons.org/ns#"
   xmlns:rdf="http://www.w3.org/1999/02/22-rdf-syntax-ns#"
   xmlns:svg="http://www.w3.org/2000/svg"
   xmlns="http://www.w3.org/2000/svg"
   xmlns:sodipodi="http://sodipodi.sourceforge.net/DTD/sodipodi-0.dtd"
   xmlns:inkscape="http://www.inkscape.org/namespaces/inkscape"
   version="1.1"
   id="Слой_1"
   x="0px"
   y="0px"
   viewBox="0 0 320 320"
   xml:space="preserve"
   sodipodi:docname="logo-icon-v1.svg"
   inkscape:version="1.0.1 (3bc2e813f5, 2020-09-07)"
   width="320"
   height="320"><metadata
   id="metadata98"><rdf:RDF><cc:Work
       rdf:about=""><dc:format>image/svg+xml</dc:format><dc:type
         rdf:resource="http://purl.org/dc/dcmitype/StillImage" /><dc:title></dc:title></cc:Work></rdf:RDF></metadata><defs
   id="defs96">
	
	
	
	
	
	
	
	
	
</defs><sodipodi:namedview
   pagecolor="#ffffff"
   bordercolor="#666666"
   borderopacity="1"
   objecttolerance="10"
   gridtolerance="10"
   guidetolerance="10"
   inkscape:pageopacity="0"
   inkscape:pageshadow="2"
   inkscape:window-width="1920"
   inkscape:window-height="1001"
   id="namedview94"
   showgrid="false"
   inkscape:snap-grids="true"
   inkscape:snap-to-guides="true"
   inkscape:snap-page="false"
   inkscape:zoom="1.4142136"
   inkscape:cx="-43.951276"
   inkscape:cy="153.04374"
   inkscape:window-x="-9"
   inkscape:window-y="-9"
   inkscape:window-maximized="1"
   inkscape:current-layer="Слой_1"
   inkscape:document-rotation="0"
   fit-margin-top="0"
   fit-margin-left="0"
   fit-margin-right="0"
   fit-margin-bottom="0" />
<style
   type="text/css"
   id="style55">
	.st0{fill:#FFAA5F;}
	.st1{fill:#96D7A5;}
	.st2{fill:#78C3A5;}
	.st3{fill:#B67F5F;}
	.st4{fill:#A06E50;}
	.st5{fill:#FF8C5A;}
</style>
<g
   id="g89"
   transform="matrix(7.8945006,0,0,7.0214806,-1489.9506,-54.947064)">
		<path
   class="st1"
   d="m 213.7,9.1 c -2,1.1 -3.3,2.8 -3.9,4.6 1.9,0.5 4,0.2 6,-0.9 1.7,-0.9 2.9,-2.3 3.5,-3.8 0.2,-0.4 -0.1,-0.9 -0.5,-1 -1.6,-0.2 -3.4,0.1 -5.1,1.1 z"
   id="path75" />
		<path
   class="st2"
   d="m 218.8,8 c -1.6,-0.2 -3.5,0.1 -5.1,1 -2,1.1 -3.3,2.8 -3.9,4.6 l 9.5,-5.3 C 219.2,8.2 219,8.1 218.8,8 Z"
   id="path77" />
		<path
   class="st3"
   d="M 207.9,8.2 C 207.6,7.8 207,7.7 206.6,8 c -0.4,0.3 -0.5,0.9 -0.2,1.3 0,0 2.6,3.5 2.6,8.6 v 2.3 h 1.9 v -2.3 c 0,-5.7 -2.9,-9.5 -3,-9.7 z"
   id="path79" />
		<path
   class="st4"
   d="M 207.9,8.2 C 207.6,7.8 207,7.7 206.6,8 c -0.4,0.3 -0.5,0.9 -0.2,1.3 0,0 0.5,0.7 1.1,1.9 0.2,0.3 0.5,0.5 0.9,0.5 0.7,0 1.2,-0.7 0.9,-1.4 -0.8,-1.2 -1.4,-2 -1.4,-2.1 z"
   id="path81" />
		<path
   class="st0"
   d="m 220.4,35.4 c 0,-9.9 -6.6,-18 -14.7,-18 -8.1,0 -14.7,8.1 -14.7,18 0,9.9 6.6,18 14.7,18 8.1,0 14.7,-8 14.7,-18 z"
   id="path83" />
		<path
   class="st0"
   d="m 227,35.4 c 0,-9.9 -5.5,-18 -12.3,-18 -6.8,0 -12.3,8.1 -12.3,18 0,9.9 5.5,18 12.3,18 6.8,0 12.3,-8 12.3,-18 z"
   id="path85" />
		<path
   class="st5"
   d="m 218.5,50.6 c -6.8,0 -12.3,-8.1 -12.3,-18 0,-5.9 1.9,-11.1 4.9,-14.4 -5,2.3 -8.7,9.1 -8.7,17.2 0,4.6 1.2,8.8 3.1,11.9 0.7,1.1 -0.5,2.4 -1.7,1.8 -5.3,-2.7 -9,-9.1 -9,-16.6 0,-5.5 2,-10.5 5.2,-13.8 -5.3,2.7 -9,9.1 -9,16.6 0,9.9 6.6,18 14.7,18 1.7,0 3.4,-0.4 4.9,-1 1.3,0.7 2.7,1 4.1,1 2.8,0 5.3,-1.4 7.4,-3.6 -1.2,0.6 -2.4,0.9 -3.6,0.9 z"
   id="path87" />
	</g>
</svg>
