<?xml version="1.0" encoding="UTF-8" standalone="no"?>
<svg
   xmlns:dc="http://purl.org/dc/elements/1.1/"
   xmlns:cc="http://creativecommons.org/ns#"
   xmlns:rdf="http://www.w3.org/1999/02/22-rdf-syntax-ns#"
   xmlns:svg="http://www.w3.org/2000/svg"
   xmlns="http://www.w3.org/2000/svg"
   xmlns:sodipodi="http://sodipodi.sourceforge.net/DTD/sodipodi-0.dtd"
   xmlns:inkscape="http://www.inkscape.org/namespaces/inkscape"
   version="1.1"
   id="Слой_1"
   x="0px"
   y="0px"
   viewBox="0 0 1888.5 397.62192"
   xml:space="preserve"
   sodipodi:docname="logo-v3.svg"
   inkscape:version="1.0.1 (3bc2e813f5, 2020-09-07)"
   width="1888.5"
   height="397.62192"><metadata
   id="metadata98"><rdf:RDF><cc:Work
       rdf:about=""><dc:format>image/svg+xml</dc:format><dc:type
         rdf:resource="http://purl.org/dc/dcmitype/StillImage" /><dc:title></dc:title></cc:Work></rdf:RDF></metadata><defs
   id="defs96"><inkscape:path-effect
   effect="spiro"
   id="path-effect1424"
   is_visible="true"
   lpeversion="1" /><inkscape:path-effect
   effect="spiro"
   id="path-effect1411"
   is_visible="true"
   lpeversion="1" /><inkscape:path-effect
   effect="spiro"
   id="path-effect1395"
   is_visible="true"
   lpeversion="1" /><inkscape:path-effect
   effect="spiro"
   id="path-effect1387"
   is_visible="true"
   lpeversion="1" /><inkscape:path-effect
   effect="spiro"
   id="path-effect1383"
   is_visible="true"
   lpeversion="1" /><inkscape:path-effect
   effect="spiro"
   id="path-effect1348"
   is_visible="true"
   lpeversion="1" /><inkscape:path-effect
   effect="spiro"
   id="path-effect1344"
   is_visible="true"
   lpeversion="1" />
	
	
	
	
	
	
	
	
	

		
		
		
		
		
		
		
	</defs><sodipodi:namedview
   pagecolor="#ffffff"
   bordercolor="#666666"
   borderopacity="1"
   objecttolerance="10"
   gridtolerance="10"
   guidetolerance="10"
   inkscape:pageopacity="0"
   inkscape:pageshadow="2"
   inkscape:window-width="1920"
   inkscape:window-height="1001"
   id="namedview94"
   showgrid="false"
   inkscape:snap-grids="true"
   inkscape:snap-to-guides="true"
   inkscape:snap-page="false"
   inkscape:zoom="0.5"
   inkscape:cx="1377.1025"
   inkscape:cy="36.988163"
   inkscape:window-x="-9"
   inkscape:window-y="-9"
   inkscape:window-maximized="1"
   inkscape:current-layer="Слой_1"
   inkscape:document-rotation="0"
   fit-margin-top="0"
   fit-margin-left="0"
   fit-margin-right="0"
   fit-margin-bottom="0" />
<style
   type="text/css"
   id="style55">
	.st0{fill:#FFAA5F;}
	.st1{fill:#96D7A5;}
	.st2{fill:#78C3A5;}
	.st3{fill:#B67F5F;}
	.st4{fill:#A06E50;}
	.st5{fill:#FF8C5A;}
</style>
<path
   class="st0"
   d="m 46.853821,294.55274 c -4.684617,9.95479 -16.981726,15.81057 -24.594222,15.81057 -11.711533,0 -21.080759,-7.6125 -21.080759,-18.73846 0,-3.51346 1.171154,-8.19807 2.342307,-10.54037 L 120.63647,31.043248 c 7.02692,-14.053839 15.81057,-25.179795 32.20671,-25.179795 16.39616,0 21.08077,9.954803 24.59423,25.179795 l 46.84612,250.041232 c 0.58558,0.58557 0.58558,2.92787 0.58558,4.68461 0,15.22498 -12.88268,24.59422 -27.5221,24.59422 -15.22499,0 -18.73845,-10.54039 -21.66634,-25.76538 l -7.61249,-40.99037 H 69.691311 Z m 41.57594,-91.34996 H 161.62684 C 154.01434,160.45569 145.81627,118.87974 142.88838,74.961498 125.90666,120.0509 106.58263,160.45569 88.429761,203.20278 Z"
   id="path57"
   style="stroke:#000000;stroke-width:2.35768;stroke-linecap:round;stroke-linejoin:round;stroke-miterlimit:4;stroke-dasharray:none;stroke-opacity:1" /><path
   class="st0"
   d="m 377.70461,13.47595 c 8.78365,-0.585577 18.73846,0 42.7471,-10.54038 1.17115,-0.585577 5.27019,-1.75673 9.36922,-1.75673 10.54039,0 18.15288,7.612496 18.15288,17.567299 0,29.278831 -55.0442,31.621138 -74.36824,33.377868 -24.59421,2.342306 -46.26054,9.954803 -54.45862,66.755733 12.29711,-11.12595 28.69326,-17.56729 47.4317,-17.56729 50.3596,0 74.95382,33.96344 68.51247,76.71053 l -8.19807,55.04421 c -6.44134,42.74709 -39.81921,76.12496 -95.44899,76.12496 -55.62978,0 -80.80957,-33.37787 -74.36824,-76.12496 l 17.56731,-122.9711 c 7.6125,-53.28747 39.81921,-90.178797 103.06148,-96.62014 z m 4.68461,219.59124 8.19808,-55.62978 c 2.92788,-22.25192 -7.02692,-36.30575 -32.79229,-36.30575 -24.59422,0 -42.16152,12.88268 -45.67498,33.96344 l -8.19807,57.97209 c -3.51346,22.83748 8.19807,36.89133 34.54901,36.89133 26.35096,0 40.40479,-14.05385 43.91825,-36.89133 z"
   id="path59"
   style="stroke:#000000;stroke-width:2.35768;stroke-linecap:round;stroke-linejoin:round;stroke-miterlimit:4;stroke-dasharray:none;stroke-opacity:1" /><path
   class="st0"
   d="m 511.80166,300.99407 -10.54038,74.36824 c -1.75673,11.71153 -11.12595,21.08076 -25.76537,21.08076 -14.63941,0 -21.66634,-9.9548 -19.90961,-21.08076 l 31.03556,-221.93354 c 1.75674,-11.71154 0.58558,-18.15288 -2.3423,-24.59422 -2.34231,-3.51346 -3.51346,-6.44135 -2.34231,-11.12596 1.75673,-12.29711 13.46826,-20.495182 23.42307,-20.495182 8.19807,0 14.05383,4.099042 18.15287,11.125962 20.49518,-11.125962 40.99036,-18.738462 62.65671,-18.738462 46.26054,0 67.3413,32.792292 60.89996,80.809582 l -7.02692,52.11632 c -7.02692,50.35959 -31.03556,86.66534 -87.8365,86.66534 -12.88268,0.58558 -25.76536,-1.75673 -40.40478,-8.19808 z m 5.27019,-36.89132 c 12.29711,5.27019 26.35095,7.02692 35.72018,7.02692 25.76537,0 36.89133,-15.225 41.57594,-48.01729 l 7.02692,-52.11632 c 3.51345,-27.5221 -5.2702,-41.57594 -28.10768,-41.57594 -11.71153,0 -26.35095,4.09904 -40.99037,11.12596 0.58558,4.68461 0.58558,8.78365 0,12.88269 z"
   id="path61"
   style="stroke:#000000;stroke-width:2.35768;stroke-linecap:round;stroke-linejoin:round;stroke-miterlimit:4;stroke-dasharray:none;stroke-opacity:1" /><path
   class="st0"
   d="m 748.37462,309.77773 c -47.43171,0 -67.92689,-32.79229 -60.89997,-81.39516 L 703.8708,111.85283 c 1.75672,-11.71153 11.12595,-20.495192 25.76536,-20.495192 14.05385,0 21.66635,8.783662 19.90961,20.495192 l -16.39614,116.52974 c -3.51347,26.93653 5.27019,42.16152 26.93652,42.16152 12.88269,0 26.93653,-4.09903 41.57594,-11.12596 0,-3.51346 0,-7.02692 0.58558,-9.95479 L 821.5717,112.4384 c 1.75673,-11.71153 10.54038,-20.495182 25.76537,-20.495182 15.22499,0 21.66634,8.783652 19.9096,20.495182 l -20.49518,141.12397 c -2.3423,14.63941 0.58558,16.39615 4.09904,22.25191 2.34231,2.92789 3.51346,6.44135 3.51346,11.12596 -1.75673,12.29711 -13.46826,20.49518 -24.59422,20.49518 -9.36922,0 -15.81057,-5.85576 -19.90961,-14.05384 -20.49518,11.71153 -42.16151,16.39615 -61.48554,16.39615 z"
   id="path63"
   style="stroke:#000000;stroke-width:2.35768;stroke-linecap:round;stroke-linejoin:round;stroke-miterlimit:4;stroke-dasharray:none;stroke-opacity:1" /><path
   class="st0"
   d="m 947.4707,286.94024 c -1.7568,11.71153 -13.46829,21.66633 -26.35097,21.66633 -12.88269,0 -21.08076,-9.9548 -19.32403,-21.66633 L 926.38991,112.4384 c 1.75674,-11.12595 12.29711,-21.666332 25.17979,-21.666332 12.8827,0 21.6663,9.954802 20.4951,21.666332 l -9.3692,64.99901 h 15.8106 l 57.9721,-69.09804 c 7.6125,-8.783652 15.8106,-16.396152 26.351,-16.396152 10.5403,0 18.7385,7.02692 18.7385,16.396152 0,3.51346 -2.3423,9.9548 -5.2703,14.05383 l -66.1701,78.46728 44.5038,77.88169 c 2.3423,3.51346 2.9279,8.19807 2.3423,12.2971 -2.3423,11.71154 -12.8827,18.15288 -24.0086,18.15288 -12.2972,0 -17.5673,-7.61249 -21.6664,-15.81057 l -40.9903,-74.36823 h -12.8827 z"
   id="path65"
   style="stroke:#000000;stroke-width:2.35768;stroke-linecap:round;stroke-linejoin:round;stroke-miterlimit:4;stroke-dasharray:none;stroke-opacity:1" /><path
   class="st0"
   d="m 1353.8609,170.41049 c 6.4413,-44.50383 35.7201,-79.052852 92.521,-79.052852 22.252,0 64.4135,5.85577 60.9001,31.035562 -1.1712,8.78365 -8.1982,17.56731 -22.8375,17.56731 -3.5135,0 -6.4414,-0.58559 -10.5405,-1.75674 -8.198,-4.09903 -15.8105,-8.19807 -29.8644,-8.19807 -28.1077,0 -41.5758,14.63942 -44.5038,39.81921 l -8.198,60.3144 c -3.5135,25.17979 5.2701,40.40478 33.3778,40.40478 14.0539,0 22.8375,-4.09903 32.2067,-8.19807 3.5135,-1.17115 6.4414,-2.34231 10.5405,-2.34231 14.6394,0 19.324,9.36923 18.1528,18.15288 -3.5134,24.59422 -47.4317,31.03556 -70.2692,31.03556 -56.2153,0 -76.125,-35.1346 -69.6836,-79.05284 z"
   id="path67"
   style="stroke:#000000;stroke-width:2.35768;stroke-linecap:round;stroke-linejoin:round;stroke-miterlimit:4;stroke-dasharray:none;stroke-opacity:1" /><path
   class="st0"
   d="m 1568.1819,286.94024 c -1.7567,11.71153 -13.4683,21.66633 -26.351,21.66633 -12.8826,0 -21.0807,-9.9548 -19.324,-21.66633 l 24.5943,-174.50184 c 1.7567,-11.12595 12.297,-21.666332 25.1798,-21.666332 12.8826,0 21.6663,9.954802 20.4951,21.666332 l -9.3692,64.99901 h 15.8105 l 57.9721,-69.09804 c 7.6125,-8.783652 15.8106,-16.396152 26.351,-16.396152 10.5404,0 18.7384,7.02692 18.7384,16.396152 0,3.51346 -2.3423,9.9548 -5.2702,14.05383 l -66.1701,78.46728 44.5038,77.88169 c 2.3423,3.51346 2.9279,8.19807 2.3423,12.2971 -2.3423,11.71154 -12.8827,18.15288 -24.0086,18.15288 -12.2971,0 -17.5673,-7.61249 -21.6664,-15.81057 l -40.9903,-74.36823 h -12.8827 z"
   id="path69"
   style="stroke:#000000;stroke-width:2.35768;stroke-linecap:round;stroke-linejoin:round;stroke-miterlimit:4;stroke-dasharray:none;stroke-opacity:1" /><g
   id="g73"
   transform="matrix(5.8557663,0,0,5.8557663,-9.947116,-4.09135)"
   style="stroke:#000000;stroke-width:0.402625;stroke-linecap:round;stroke-linejoin:round;stroke-miterlimit:4;stroke-dasharray:none;stroke-opacity:1">
		<path
   class="st0"
   d="m 294.2,39.7 1.2,-8.6 c 1.2,-8.6 5.8,-15 16.1,-15 9.4,0 12.6,5.3 11.3,14.7 l -2.1,14.6 c -0.3,2.1 0.6,2.2 1.5,2.3 1.4,0.1 1.8,0.9 1.8,2 0,2.4 -1.7,3.6 -4.6,3.6 -2.4,0 -4.2,-0.8 -5.4,-3.2 -3,2.3 -5.6,3.5 -9.4,3.5 -8.1,0 -11.5,-5.6 -10.4,-13.9 z m 19,4.9 2.2,-15.5 C 316,25 314.9,23 310.6,23 c -4.6,0 -6.6,2.4 -7.3,8.1 l -1.2,8.6 c -0.6,4.8 0.9,7.2 5.1,7.2 2,0 3.5,-0.5 6,-2.3 z"
   id="path71"
   style="stroke:#000000;stroke-width:0.402625;stroke-linecap:round;stroke-linejoin:round;stroke-miterlimit:4;stroke-dasharray:none;stroke-opacity:1" />
	</g>
<g
   id="g1634"
   transform="matrix(0.94307116,0,0,0.94307116,1.17884,1.17884)"><path
     style="fill:none;fill-opacity:1;stroke:#ffaa5f;stroke-width:24;stroke-linecap:round;stroke-linejoin:round;stroke-miterlimit:4;stroke-dasharray:none;stroke-opacity:1;paint-order:stroke markers fill"
     d="m 1363.6554,308.29856 -85.9135,10.96015 107.1267,-46.66905 -149.1995,41.7193 172.534,-82.02438 -200.4647,61.51829 199.7576,-102.88404 -220.2637,75.66043 208.95,-107.83379 -210.0107,67.5287 193.3937,-100.76272 -214.9604,80.96373 191.6259,-101.46982 -183.4942,73.5391 108.8944,-71.06423 -95.1058,37.83021 56.9221,-41.7193"
     id="path1346"
     inkscape:path-effect="#path-effect1348"
     inkscape:original-d="m 1363.6554,308.29856 -85.9135,10.96015 107.1267,-46.66905 -149.1995,41.7193 172.534,-82.02438 -200.4647,61.51829 199.7576,-102.88404 -220.2637,75.66043 208.95,-107.83379 -210.0107,67.5287 193.3937,-100.76272 -214.9604,80.96373 191.6259,-101.46982 -183.4942,73.5391 108.8944,-71.06423 -95.1058,37.83021 56.9221,-41.7193" /><g
     id="g1620"><g
       id="g1608"><path
         id="path1420"
         style="fill:none;stroke:#b67f5f;stroke-width:11.1;stroke-linecap:round;stroke-linejoin:round;stroke-miterlimit:4;stroke-dasharray:none;stroke-opacity:1;paint-order:stroke fill markers"
         d="m 1271.2661,43.343838 c 8.674,14.176466 20.5992,36.010174 20.7072,49.053517 l 0.1699,20.517585" /><path
         style="fill:none;stroke:#78c3a5;stroke-width:12;stroke-linecap:round;stroke-linejoin:round;stroke-miterlimit:4;stroke-dasharray:none;stroke-opacity:1"
         d="M 1334.75,75.75 1352,60.5 l -37,25.25 39.5,-40.5 -55.75,35.75 34,-35.75 -39.8543,30.510401 L 1318,46.25 l -16,13"
         id="path1429" /><path
         style="fill:none;stroke:#ffaa5f;stroke-width:24;stroke-linecap:round;stroke-linejoin:round;stroke-miterlimit:4;stroke-dasharray:none;stroke-opacity:1;paint-order:stroke markers fill"
         d="m 1384.2008,138.08534 -204.7074,106.77313 217.7889,-68.94292 -203.2932,108.18734 203.6467,-69.65002 -192.6866,100.40917 193.3937,-58.68987"
         id="path1431" /><g
         id="g1320"><path
           id="path75"
           style="fill:none;stroke:#000000;stroke-width:2.5;stroke-miterlimit:4;stroke-dasharray:none;stroke-opacity:1"
           d="m 1294.2894,80.022913 c 11.0498,2.152824 23.0332,0.07909 34.4883,-6.221205 10.5557,-5.588326 18.0068,-14.281279 21.7323,-23.595156 1.2419,-2.483701 -0.6209,-5.588327 -3.1046,-6.209252 -9.9348,-1.241851 -21.1114,0.620925 -31.6672,6.830177 v 0 c -11.0645,6.085477 -18.6786,15.128392 -22.8425,24.932924" /><path
           id="path79"
           style="fill:none;stroke:#000000;stroke-width:2.5;stroke-miterlimit:4;stroke-dasharray:none;stroke-opacity:1"
           d="m 1297.2336,108.98502 v -3.80274 c 0,-35.392735 -18.0068,-58.987891 -18.6277,-60.229742 v 0 c -1.8628,-2.483701 -5.5884,-3.104626 -8.0721,-1.24185 -2.4837,1.862775 -3.1046,5.588326 -1.2418,8.072027 0,0 16.144,21.732381 16.144,53.399565 v 0.006" /><g
           id="g1236"><path
             id="path83"
             style="fill:none;stroke:#000000;stroke-width:2.5;stroke-miterlimit:4;stroke-dasharray:none;stroke-opacity:1"
             d="m 1265.4453,102.45312 c -50.2949,0 -91.2754,50.29403 -91.2754,111.76563 0,61.47159 40.9805,111.76758 91.2754,111.76758 10.6764,0 20.9307,-2.24682 30.4649,-6.36719 -29.7011,-15.37921 -50.9551,-56.90877 -50.9551,-105.40039 0,-48.45424 21.2216,-89.95564 50.8867,-105.36328 -9.5148,-4.13961 -19.7455,-6.40235 -30.3965,-6.40235 z" /><path
             class="st0"
             d="m 1397.6358,214.45287 c 0,-61.4716 -34.1509,-111.76654 -76.3738,-111.76654 -42.2229,0 -76.3738,50.29494 -76.3738,111.76654 0,61.47159 34.1509,111.76653 76.3738,111.76653 42.2229,0 76.3738,-49.67401 76.3738,-111.76653 z"
             id="path85-5"
             style="fill:none;fill-opacity:1;stroke:#000000;stroke-width:2.5;stroke-miterlimit:4;stroke-dasharray:none;stroke-opacity:1" /></g></g></g></g></g></svg>
