<?xml version="1.0" encoding="UTF-8" standalone="no"?>
<svg
   xmlns:dc="http://purl.org/dc/elements/1.1/"
   xmlns:cc="http://creativecommons.org/ns#"
   xmlns:rdf="http://www.w3.org/1999/02/22-rdf-syntax-ns#"
   xmlns:svg="http://www.w3.org/2000/svg"
   xmlns="http://www.w3.org/2000/svg"
   xmlns:sodipodi="http://sodipodi.sourceforge.net/DTD/sodipodi-0.dtd"
   xmlns:inkscape="http://www.inkscape.org/namespaces/inkscape"
   version="1.1"
   id="Слой_1"
   x="0px"
   y="0px"
   viewBox="0 0 1500 314.34338"
   xml:space="preserve"
   sodipodi:docname="logo-v1.svg"
   inkscape:version="1.0.1 (3bc2e813f5, 2020-09-07)"
   width="1500"
   height="314.34338"><metadata
   id="metadata98"><rdf:RDF><cc:Work
       rdf:about=""><dc:format>image/svg+xml</dc:format><dc:type
         rdf:resource="http://purl.org/dc/dcmitype/StillImage" /><dc:title></dc:title></cc:Work></rdf:RDF></metadata><defs
   id="defs96">
	
	
	
	
	
	
	
	
	
</defs><sodipodi:namedview
   pagecolor="#ffffff"
   bordercolor="#666666"
   borderopacity="1"
   objecttolerance="10"
   gridtolerance="10"
   guidetolerance="10"
   inkscape:pageopacity="0"
   inkscape:pageshadow="2"
   inkscape:window-width="1920"
   inkscape:window-height="1001"
   id="namedview94"
   showgrid="false"
   inkscape:snap-grids="true"
   inkscape:snap-to-guides="true"
   inkscape:snap-page="false"
   inkscape:zoom="0.5"
   inkscape:cx="1299.225"
   inkscape:cy="312.46221"
   inkscape:window-x="-9"
   inkscape:window-y="-9"
   inkscape:window-maximized="1"
   inkscape:current-layer="Слой_1"
   inkscape:document-rotation="0"
   fit-margin-top="0"
   fit-margin-left="0"
   fit-margin-right="0"
   fit-margin-bottom="0" />
<style
   type="text/css"
   id="style55">
	.st0{fill:#FFAA5F;}
	.st1{fill:#96D7A5;}
	.st2{fill:#78C3A5;}
	.st3{fill:#B67F5F;}
	.st4{fill:#A06E50;}
	.st5{fill:#FF8C5A;}
</style>
<path
   class="st0"
   d="M 36.324123,233.31263 C 32.598571,241.22943 22.819,245.88637 16.764979,245.88637 7.4511022,245.88637 0,239.83235 0,230.98417 0,228.19 0.9313878,224.46445 1.8627755,222.60168 L 95.001555,23.750388 C 100.58988,12.573735 107.57529,3.725551 120.61471,3.725551 c 13.03944,0 16.76499,7.916796 19.55915,20.024837 l 37.25551,198.851292 c 0.46569,0.46569 0.46569,2.32846 0.46569,3.72555 0,12.10804 -10.24527,19.55914 -21.88761,19.55914 -12.10804,0 -14.9022,-8.38249 -17.23068,-20.49053 l -6.05401,-32.59858 H 54.486184 Z M 69.388389,160.66439 H 127.60012 C 121.5461,126.66874 115.02639,93.60447 112.69792,58.677429 99.192795,94.535857 83.824897,126.66874 69.388389,160.66439 Z"
   id="path57"
   style="stroke-width:4.65694" /><path
   class="st0"
   d="m 299.44117,9.7795717 c 6.98541,-0.4656937 14.9022,0 33.99565,-8.3824901 C 334.36821,0.9313878 337.62806,0 340.88792,0 c 8.38249,0 14.43651,6.0540205 14.43651,13.970816 0,23.284694 -43.77523,25.14747 -59.14312,26.544552 -19.55914,1.862775 -36.78982,7.916796 -43.30953,53.089102 9.77957,-8.848185 22.819,-13.970813 37.7212,-13.970813 40.04968,0 59.60882,27.010243 54.48619,61.005893 l -6.51972,43.77523 c -5.12263,33.99565 -31.66718,60.5402 -75.9081,60.5402 -44.24092,0 -64.26575,-26.54455 -59.14313,-60.5402 l 13.97082,-97.79572 c 6.05403,-42.378141 31.66719,-71.716856 81.96213,-76.8394883 z m 3.72555,174.6352083 6.51971,-44.24092 c 2.32847,-17.69637 -5.58833,-28.87302 -26.07886,-28.87302 -19.55914,0 -33.52996,10.24526 -36.32412,27.01024 l -6.51971,46.1037 c -2.79416,18.16206 6.51971,29.33871 27.47593,29.33871 20.95623,0 32.13288,-11.17665 34.92705,-29.33871 z"
   id="path59"
   style="stroke-width:4.65694" /><path
   class="st0"
   d="m 406.08507,238.43527 -8.3825,59.14312 c -1.39707,9.31388 -8.84818,16.76498 -20.49053,16.76498 -11.64234,0 -17.23067,-7.91679 -15.83359,-16.76498 l 24.68178,-176.49798 c 1.39708,-9.31388 0.46569,-14.43651 -1.86278,-19.55914 -1.86277,-2.794165 -2.79416,-5.122638 -1.86277,-8.848188 1.39708,-9.779572 10.71096,-16.299285 18.62775,-16.299285 6.51972,0 11.17665,3.25986 14.43651,8.848185 16.29929,-8.848185 32.59857,-14.902206 49.82925,-14.902206 36.78981,0 53.5548,26.078856 48.43216,64.265754 l -5.58832,41.44676 c -5.58833,40.04967 -24.68178,68.92269 -69.85409,68.92269 -10.24526,0.4657 -20.49052,-1.39708 -32.13287,-6.51971 z m 4.19124,-29.33871 c 9.77957,4.19124 20.95623,5.58832 28.40733,5.58832 20.49053,0 29.33871,-12.10804 33.06427,-38.1869 l 5.58832,-41.44676 c 2.79416,-21.88761 -4.19125,-33.06426 -22.35331,-33.06426 -9.31387,0 -20.95622,3.25986 -32.59857,8.84818 0.46569,3.72555 0.46569,6.98541 0,10.24527 z"
   id="path61"
   style="stroke-width:4.65694" /><path
   class="st0"
   d="m 594.2254,245.42068 c -37.72121,0 -54.02049,-26.07886 -48.43217,-64.73145 l 13.03943,-92.673085 c 1.39708,-9.313875 8.84818,-16.299287 20.49053,-16.299287 11.17666,0 17.23067,6.985412 15.83359,16.299287 l -13.03943,92.673085 c -2.79416,21.42192 4.19125,33.52995 21.42192,33.52995 10.24527,0 21.42192,-3.25985 33.06427,-8.84818 0,-2.79416 0,-5.58833 0.46569,-7.91679 l 15.3679,-108.972375 c 1.39708,-9.313875 8.38249,-16.299283 20.49053,-16.299283 12.10804,0 17.23067,6.985408 15.83359,16.299283 L 672.46197,200.71406 c -1.86278,11.64235 0.46569,13.03943 3.25985,17.69637 1.86278,2.32847 2.79417,5.12264 2.79417,8.84819 -1.39708,9.77957 -10.71096,16.29928 -19.55914,16.29928 -7.45111,0 -12.57374,-4.65694 -15.8336,-11.17666 -16.29928,9.31389 -33.52996,13.03944 -48.89785,13.03944 z"
   id="path63"
   style="stroke-width:4.65694" /><path
   class="st0"
   d="m 752.56132,227.25862 c -1.3971,9.31387 -10.71096,17.23067 -20.95623,17.23067 -10.24527,0 -16.76498,-7.9168 -15.3679,-17.23067 L 735.79633,88.481835 c 1.39709,-8.848178 9.77958,-17.230671 20.02487,-17.230671 10.24522,0 17.23065,7.916796 16.29922,17.230671 l -7.4511,51.692025 h 12.57375 l 46.1037,-54.951878 c 6.054,-6.98541 12.57375,-13.03943 20.9562,-13.03943 8.38253,0 14.90228,5.588323 14.90228,13.03943 0,2.794163 -1.86278,7.916798 -4.1913,11.17665 l -52.62338,62.402988 35.39273,61.93728 c 1.86277,2.79417 2.32845,6.51972 1.86277,9.77957 -1.86277,9.31388 -10.2453,14.43651 -19.09342,14.43651 -9.77963,0 -13.97085,-6.05402 -17.23073,-12.57374 L 770.7234,173.23813 h -10.2453 z"
   id="path65"
   style="stroke-width:4.65694" /><path
   class="st0"
   d="m 1075.7529,134.58553 c 5.1226,-35.392735 28.4073,-62.868672 73.5796,-62.868672 17.6964,0 51.2263,4.656939 48.4322,24.681774 -0.9314,6.985408 -6.5198,13.970818 -18.1621,13.970818 -2.7942,0 -5.1226,-0.4657 -8.3825,-1.39708 -6.5197,-3.25986 -12.5738,-6.51972 -23.7504,-6.51972 -22.3533,0 -33.0642,11.64235 -35.3927,31.66719 l -6.5197,47.96646 c -2.7942,20.02485 4.1912,32.13288 26.5445,32.13288 11.1767,0 18.1621,-3.25985 25.6132,-6.51971 2.7941,-0.93139 5.1226,-1.86277 8.3824,-1.86277 11.6424,0 15.368,7.4511 14.4366,14.43651 -2.7942,19.55914 -37.7212,24.68177 -55.8833,24.68177 -44.7066,0 -60.5402,-27.94163 -55.4176,-62.86868 z"
   id="path67"
   style="stroke-width:4.65694" /><path
   class="st0"
   d="m 1246.1968,227.25862 c -1.3971,9.31387 -10.7109,17.23067 -20.9562,17.23067 -10.2453,0 -16.765,-7.9168 -15.3679,-17.23067 l 19.5592,-138.776785 c 1.397,-8.848178 9.7795,-17.230671 20.0248,-17.230671 10.2452,0 17.2307,7.916796 16.2992,17.230671 l -7.4511,51.692025 h 12.5738 l 46.1037,-54.951878 c 6.054,-6.98541 12.5737,-13.03943 20.9562,-13.03943 8.3825,0 14.9022,5.588323 14.9022,13.03943 0,2.794163 -1.8628,7.916798 -4.1912,11.17665 l -52.6234,62.402988 35.3927,61.93728 c 1.8628,2.79417 2.3285,6.51972 1.8628,9.77957 -1.8628,9.31388 -10.2453,14.43651 -19.0934,14.43651 -9.7797,0 -13.9709,-6.05402 -17.2308,-12.57374 l -32.5985,-59.14311 h -10.2453 z"
   id="path69"
   style="stroke-width:4.65694" /><g
   id="g73"
   transform="matrix(4.6569388,0,0,4.6569388,-8.8481835,-4.1912449)">
		<path
   class="st0"
   d="m 294.2,39.7 1.2,-8.6 c 1.2,-8.6 5.8,-15 16.1,-15 9.4,0 12.6,5.3 11.3,14.7 l -2.1,14.6 c -0.3,2.1 0.6,2.2 1.5,2.3 1.4,0.1 1.8,0.9 1.8,2 0,2.4 -1.7,3.6 -4.6,3.6 -2.4,0 -4.2,-0.8 -5.4,-3.2 -3,2.3 -5.6,3.5 -9.4,3.5 -8.1,0 -11.5,-5.6 -10.4,-13.9 z m 19,4.9 2.2,-15.5 C 316,25 314.9,23 310.6,23 c -4.6,0 -6.6,2.4 -7.3,8.1 l -1.2,8.6 c -0.6,4.8 0.9,7.2 5.1,7.2 2,0 3.5,-0.5 6,-2.3 z"
   id="path71" />
	</g><g
   id="g89"
   transform="matrix(4.6569388,0,0,4.6569388,-8.8481835,-4.1912449)">
		<path
   class="st1"
   d="m 213.7,9.1 c -2,1.1 -3.3,2.8 -3.9,4.6 1.9,0.5 4,0.2 6,-0.9 1.7,-0.9 2.9,-2.3 3.5,-3.8 0.2,-0.4 -0.1,-0.9 -0.5,-1 -1.6,-0.2 -3.4,0.1 -5.1,1.1 z"
   id="path75" />
		<path
   class="st2"
   d="m 218.8,8 c -1.6,-0.2 -3.5,0.1 -5.1,1 -2,1.1 -3.3,2.8 -3.9,4.6 l 9.5,-5.3 C 219.2,8.2 219,8.1 218.8,8 Z"
   id="path77" />
		<path
   class="st3"
   d="M 207.9,8.2 C 207.6,7.8 207,7.7 206.6,8 c -0.4,0.3 -0.5,0.9 -0.2,1.3 0,0 2.6,3.5 2.6,8.6 v 2.3 h 1.9 v -2.3 c 0,-5.7 -2.9,-9.5 -3,-9.7 z"
   id="path79" />
		<path
   class="st4"
   d="M 207.9,8.2 C 207.6,7.8 207,7.7 206.6,8 c -0.4,0.3 -0.5,0.9 -0.2,1.3 0,0 0.5,0.7 1.1,1.9 0.2,0.3 0.5,0.5 0.9,0.5 0.7,0 1.2,-0.7 0.9,-1.4 -0.8,-1.2 -1.4,-2 -1.4,-2.1 z"
   id="path81" />
		<path
   class="st0"
   d="m 220.4,35.4 c 0,-9.9 -6.6,-18 -14.7,-18 -8.1,0 -14.7,8.1 -14.7,18 0,9.9 6.6,18 14.7,18 8.1,0 14.7,-8 14.7,-18 z"
   id="path83" />
		<path
   class="st0"
   d="m 227,35.4 c 0,-9.9 -5.5,-18 -12.3,-18 -6.8,0 -12.3,8.1 -12.3,18 0,9.9 5.5,18 12.3,18 6.8,0 12.3,-8 12.3,-18 z"
   id="path85" />
		<path
   class="st5"
   d="m 218.5,50.6 c -6.8,0 -12.3,-8.1 -12.3,-18 0,-5.9 1.9,-11.1 4.9,-14.4 -5,2.3 -8.7,9.1 -8.7,17.2 0,4.6 1.2,8.8 3.1,11.9 0.7,1.1 -0.5,2.4 -1.7,1.8 -5.3,-2.7 -9,-9.1 -9,-16.6 0,-5.5 2,-10.5 5.2,-13.8 -5.3,2.7 -9,9.1 -9,16.6 0,9.9 6.6,18 14.7,18 1.7,0 3.4,-0.4 4.9,-1 1.3,0.7 2.7,1 4.1,1 2.8,0 5.3,-1.4 7.4,-3.6 -1.2,0.6 -2.4,0.9 -3.6,0.9 z"
   id="path87" />
	</g>
</svg>
